<svg width="34" height="30" viewBox="0 0 34 30" fill="none" xmlns="http://www.w3.org/2000/svg">
<path d="M33.2696 20.131C33.1915 19.4806 32.9304 19.0093 32.4936 18.73C32.0724 18.4606 31.6045 18.4522 31.291 18.4907C30.4674 15.6557 28.6219 13.2001 26.311 11.9802C25.5252 11.5653 24.7126 11.2629 23.9075 11.0454H26.66C26.9709 11.0454 27.2229 10.7937 27.2229 10.4833C27.2229 10.1729 26.9708 9.92124 26.66 9.92124H25.6327C25.7317 9.73443 25.7884 9.52201 25.7884 9.29646V6.96985C25.7884 6.23078 25.1863 5.62953 24.4462 5.62953H23.1286C23.157 5.52118 23.1735 5.40821 23.1735 5.2911V2.96464C23.1735 2.22557 22.5714 1.62425 21.8314 1.62425H21.1738L21.4253 1.39298C21.629 1.2055 21.6421 0.88859 21.4544 0.685082C21.2666 0.481426 20.9493 0.468512 20.7455 0.655988L20.0528 1.2933L19.3708 0.658066C19.1681 0.469328 18.8509 0.480387 18.6617 0.682781C18.4728 0.885102 18.4839 1.20209 18.6865 1.3909L18.9371 1.62425H18.2827C17.5427 1.62425 16.9405 2.22557 16.9405 2.96464V5.29125C16.9405 5.40829 16.9572 5.52132 16.9855 5.62968H15.6679C14.9278 5.62968 14.3256 6.23093 14.3256 6.97V9.29661C14.3256 9.52216 14.3823 9.73457 14.4813 9.92138H13.4541C13.1431 9.92138 12.8912 10.1731 12.8912 10.4834C12.8912 10.7938 13.1432 11.0455 13.4541 11.0455H15.8542C14.3842 11.4372 12.8425 12.1308 11.7495 13.3533C11.2477 13.9146 10.8693 14.546 10.5033 15.1565C10.4242 15.2884 10.3451 15.4205 10.2646 15.552C10.245 15.584 10.206 15.6547 10.1546 15.7489C9.91448 16.1892 9.73976 16.4835 9.63303 16.6276H7.63712C5.34051 16.6276 3.377 18.1892 2.61351 20.3772C2.28636 20.3638 1.76657 20.4089 1.33619 20.7506C1.05787 20.9717 0.721571 21.4024 0.700315 22.1994C0.682925 22.8541 0.872439 23.3583 1.26395 23.6981C1.4386 23.8496 1.63116 23.9473 1.81904 24.0094C1.73499 24.1286 1.68527 24.2734 1.68527 24.4295V24.5658C1.68527 24.9702 2.01666 25.3011 2.42162 25.3011H3.76665C3.90213 25.3336 4.04245 25.3522 4.187 25.3522H4.96921C5.13814 26.5539 5.90556 27.5664 6.95977 28.0786H4.45284C4.17578 28.0786 3.95118 28.3028 3.95118 28.5795C3.95118 28.8563 4.17578 29.0805 4.45284 29.0805H32.1246C32.4017 29.0805 32.6263 28.8563 32.6263 28.5795C32.6263 28.3028 32.4017 28.0786 32.1246 28.0786H26.8517C27.906 27.5664 28.6734 26.5539 28.8424 25.3522H29.8704C30.0163 25.3522 30.1581 25.3341 30.2947 25.3011H31.6464C32.0513 25.3011 32.3827 24.9702 32.3827 24.5658V24.5198H32.6794C32.9565 24.5198 33.1811 24.2956 33.1811 24.0189V22.4336C33.1811 22.1569 32.9565 21.9326 32.6794 21.9326H32.5073C32.6278 21.8598 32.745 21.77 32.8514 21.6566C33.0945 21.3975 33.3646 20.9225 33.2696 20.131ZM2.21962 23.0807C2.11498 23.0577 2.00752 23.0157 1.92212 22.9417C1.76791 22.8079 1.69426 22.5671 1.7034 22.226C1.7121 21.898 1.79779 21.6663 1.95772 21.5372C2.05449 21.4592 2.17778 21.4169 2.29914 21.3957L2.21962 23.0807ZM23.1736 6.63156H24.4463C24.6299 6.63156 24.7852 6.78653 24.7852 6.96993V7.63225H23.1736V6.63156ZM23.1736 8.63413H24.7852V9.29646C24.7852 9.47986 24.6299 9.63482 24.4463 9.63482H23.1736V8.63413ZM20.534 2.6262H21.8315C22.0151 2.6262 22.1703 2.78124 22.1703 2.96464V3.62696H20.534V2.6262ZM20.534 4.62892H22.1703V5.29125C22.1703 5.47464 22.0151 5.62968 21.8315 5.62968H20.8977H20.534V4.62892ZM20.5587 7.63218V6.96985C20.5587 6.78646 20.714 6.63149 20.8977 6.63149H21.8315H22.1703V7.63211H20.5587V7.63218ZM22.1703 8.63413V9.63475H20.8977C20.714 9.63475 20.5587 9.47978 20.5587 9.29639V8.63406H22.1703V8.63413ZM17.944 2.96464C17.944 2.78124 18.0992 2.6262 18.2828 2.6262H19.5308V3.62689H17.944V2.96464ZM17.944 4.62892H19.5308V5.62961H19.2166H18.2827C18.0991 5.62961 17.9439 5.47457 17.9439 5.29117V4.62892H17.944ZM17.944 6.63156H18.2828H19.2166C19.4003 6.63156 19.5555 6.78653 19.5555 6.96993V7.63225H17.944V6.63156ZM17.944 8.63413H19.5555V9.29646C19.5555 9.47986 19.4003 9.63482 19.2166 9.63482H17.944V8.63413ZM15.3291 6.96993C15.3291 6.78653 15.4843 6.63156 15.6681 6.63156H16.9407V7.63218H15.3291V6.96993ZM15.6681 9.63482C15.4843 9.63482 15.3291 9.47986 15.3291 9.29646V8.63413H16.9407V9.63475H15.6681V9.63482ZM9.56815 25.3522C9.38102 25.74 8.9849 26.0083 8.52494 26.0083C8.06505 26.0083 7.66878 25.74 7.48172 25.3522C7.40851 25.2004 7.3663 25.031 7.3663 24.8512C7.3663 24.2122 7.88497 23.6942 8.52494 23.6942C9.1649 23.6942 9.68365 24.2121 9.68365 24.8512C9.68365 25.031 9.64143 25.2004 9.56815 25.3522ZM10.09 28.0786C11.1443 27.5665 11.9117 26.554 12.0807 25.3523H21.7312C21.9001 26.554 22.6675 27.5665 23.7217 28.0786H10.09ZM26.33 25.3522C26.1428 25.74 25.7466 26.0083 25.2867 26.0083C24.8268 26.0083 24.4306 25.74 24.2435 25.3522C24.1703 25.2004 24.128 25.031 24.128 24.8512C24.128 24.2122 24.6468 23.6942 25.2867 23.6942C25.9267 23.6942 26.4454 24.2121 26.4454 24.8512C26.4454 25.031 26.4032 25.2004 26.33 25.3522ZM30.7859 22.9346C30.782 23.0964 30.7765 23.248 30.7702 23.3872C30.7681 23.4316 30.7636 23.4754 30.7567 23.518C30.7468 23.579 30.7319 23.6377 30.7129 23.6942H29.2384H28.6854C28.2021 22.2827 26.8617 21.2647 25.2868 21.2647C23.7118 21.2647 22.3713 22.2828 21.8883 23.6942H11.9236C11.4404 22.2827 10.1 21.2647 8.52508 21.2647C6.95011 21.2647 5.60962 22.2828 5.12654 23.6942H3.33932C3.29903 23.578 3.27614 23.452 3.27614 23.3199V22.4C3.27614 19.7695 5.23245 17.6294 7.63719 17.6294H9.81237C10.2082 17.6294 10.453 17.2967 11.0359 16.228C11.0757 16.1549 11.1054 16.0996 11.1208 16.0743C11.2029 15.9404 11.2836 15.8057 11.3643 15.671C11.7219 15.0744 12.0597 14.5108 12.498 14.0206C14.2118 12.1036 17.3066 11.6631 18.999 11.5712C20.815 11.4726 23.4765 11.6171 25.8423 12.8659C28.286 14.1561 30.2209 17.1476 30.6571 20.31C30.7862 21.2462 30.8034 22.1962 30.7859 22.9346ZM32.1778 23.518H31.7646C31.767 23.4895 31.7712 23.4616 31.7724 23.4328C31.7794 23.2802 31.7854 23.1132 31.7894 22.9347H32.1778V23.518ZM32.1219 20.9685C32.0377 21.0597 31.9218 21.1196 31.8049 21.1582L31.6381 19.4796C31.7484 19.4877 31.8622 19.515 31.9561 19.5761C32.1263 19.6868 32.233 19.9136 32.2733 20.2502C32.3125 20.576 32.2615 20.8177 32.1219 20.9685Z" fill="#2E2E2E"/>
</svg>
