<svg width="16" height="13" viewBox="0 0 16 13" fill="none" xmlns="http://www.w3.org/2000/svg">
<path d="M2.328 5.22857C3.18403 5.22857 3.88 4.44701 3.88 3.48571C3.88 2.52442 3.18403 1.74286 2.328 1.74286C1.47198 1.74286 0.776 2.52442 0.776 3.48571C0.776 4.44701 1.47198 5.22857 2.328 5.22857ZM13.192 5.22857C14.048 5.22857 14.744 4.44701 14.744 3.48571C14.744 2.52442 14.048 1.74286 13.192 1.74286C12.336 1.74286 11.64 2.52442 11.64 3.48571C11.64 4.44701 12.336 5.22857 13.192 5.22857ZM13.968 6.1H12.416C11.9892 6.1 11.6036 6.29335 11.3223 6.60652C12.2996 7.20835 12.9932 8.29491 13.1435 9.58571H14.744C15.1732 9.58571 15.52 9.19629 15.52 8.71429V7.84286C15.52 6.88156 14.824 6.1 13.968 6.1ZM7.76 6.1C9.26108 6.1 10.476 4.73567 10.476 3.05C10.476 1.36433 9.26108 0 7.76 0C6.25892 0 5.044 1.36433 5.044 3.05C5.044 4.73567 6.25892 6.1 7.76 6.1ZM9.6224 6.97143H9.42113C8.91673 7.24375 8.35655 7.40714 7.76 7.40714C7.16345 7.40714 6.6057 7.24375 6.09888 6.97143H5.8976C4.3553 6.97143 3.104 8.37661 3.104 10.1086V10.8929C3.104 11.6145 3.62538 12.2 4.268 12.2H11.252C11.8946 12.2 12.416 11.6145 12.416 10.8929V10.1086C12.416 8.37661 11.1647 6.97143 9.6224 6.97143ZM4.19768 6.60652C3.91638 6.29335 3.5308 6.1 3.104 6.1H1.552C0.695975 6.1 0 6.88156 0 7.84286V8.71429C0 9.19629 0.346775 9.58571 0.776 9.58571H2.37408C2.52685 8.29491 3.2204 7.20835 4.19768 6.60652Z" fill="#AAB2C0"/>
</svg>
