<svg width="28" height="25" viewBox="0 0 28 25" fill="none" xmlns="http://www.w3.org/2000/svg">
<path d="M24.1647 1.85517C24.0897 1.40213 23.843 1.00554 23.4702 0.738373C23.0976 0.471274 22.6436 0.365705 22.1913 0.440789L16.0945 1.45597L15.8207 0.905265C15.6267 0.514956 15.2926 0.223794 14.8801 0.0853399C14.4674 -0.0531842 14.0257 -0.0222754 13.6363 0.172279L8.55276 2.71165L7.10284 2.95306C6.45449 3.0611 5.95172 3.5229 5.75691 4.10826L0.902143 6.53338C0.0983298 6.93484 -0.229757 7.917 0.170847 8.72274L7.81422 24.0948C8.00832 24.4851 8.34239 24.7763 8.75497 24.9147C8.92485 24.9718 9.0996 25 9.27357 25C9.52231 25 9.7695 24.9423 9.9986 24.8277L10.4969 24.5789C10.5592 24.5753 10.6215 24.5696 10.6839 24.5593L25.7723 22.047C26.2243 21.9717 26.6201 21.7245 26.8866 21.3509C27.1532 20.9773 27.2585 20.5221 27.1835 20.069L24.1647 1.85517ZM14.0603 1.02495C14.1557 0.977244 14.2587 0.95318 14.3623 0.95318C14.4347 0.95318 14.5075 0.964965 14.5783 0.988746C14.75 1.0464 14.8893 1.16763 14.97 1.33022L15.1139 1.61927L11.7487 2.17957L14.0603 1.02495ZM9.05679 24.0113C8.88493 23.9537 8.74581 23.8325 8.66492 23.6698L1.02155 8.29792C0.85469 7.9623 0.991346 7.55322 1.32612 7.38598L5.73375 5.18427L5.86696 5.98775L2.8011 7.51921C2.20928 7.81482 1.96772 8.53807 2.26265 9.13133L7.70072 20.068C7.83118 20.3304 8.04507 20.5239 8.29431 20.6328L8.71068 23.1448C8.76672 23.4828 8.91838 23.7893 9.14642 24.0341C9.11628 24.0283 9.08629 24.0213 9.05679 24.0113ZM26.1135 20.7967C25.9946 20.9633 25.8182 21.0735 25.6165 21.1071L13.3623 23.1475L10.5281 23.6193C10.4464 23.633 10.3646 23.6326 10.2849 23.6203C10.1683 23.6022 10.0566 23.5575 9.95784 23.4867C9.79161 23.3676 9.68164 23.1908 9.64819 22.9886L9.25724 20.6297L9.09488 19.6501L6.91965 6.52611L6.75673 5.54311L6.62937 4.77484C6.6274 4.76277 6.62663 4.75077 6.62522 4.73871C6.57769 4.33513 6.85453 3.96006 7.25858 3.89281L8.84875 3.62804L11.4613 3.19307L14.7611 2.64356L15.5573 2.51103L16.5381 2.34781L22.3471 1.38054C22.3896 1.37348 22.4319 1.36995 22.4741 1.36995C22.6323 1.36995 22.7862 1.41914 22.9173 1.51313C23.0836 1.63225 23.1936 1.80916 23.227 2.01127L26.2457 20.225C26.2793 20.4272 26.2323 20.6301 26.1135 20.7967Z" fill="#2E2E2E"/>
<path d="M24.7308 16.459C24.7308 16.4585 24.7308 16.458 24.7306 16.4575L24.2545 13.5855C24.2545 13.5854 24.2545 13.5854 24.2545 13.5854L22.5889 3.53528C22.5341 3.20425 22.3537 2.91428 22.0813 2.71902C21.809 2.52376 21.477 2.44677 21.1466 2.5016L8.74384 4.56683C8.4135 4.62181 8.12435 4.80246 7.92954 5.07556C7.73473 5.34858 7.6577 5.68124 7.71255 6.01234L9.22506 15.1381C9.22506 15.1382 9.22506 15.1383 9.22506 15.1384L9.3696 16.0104L9.86025 18.9708C9.96206 19.585 10.4946 20.0216 11.0964 20.0216C11.1643 20.0216 11.2333 20.0161 11.3025 20.0046L18.026 18.885L22.5709 18.1282C22.5712 18.1282 22.5714 18.1281 22.5716 18.1281L23.6691 17.9453L23.7054 17.9393C24.3873 17.8257 24.8499 17.1773 24.7365 16.4938L24.7308 16.459ZM23.5134 17.0055L22.6326 17.1521L18.2396 13.4104L18.5374 12.876L19.2653 12.59L19.9125 12.8117C20.0633 12.8633 20.2293 12.8358 20.3557 12.7388L20.9047 12.3164L21.6382 12.346L23.3438 13.9045L23.7931 16.6146C23.8232 16.7994 23.6979 16.9747 23.5134 17.0055ZM19.0769 17.7443L16.5022 18.173L15.4912 18.3413L17.767 14.2582L21.405 17.3566L19.0769 17.7443ZM10.3265 15.9699L10.1628 14.9823C10.1586 14.9569 10.165 14.9306 10.1804 14.9101L11.2857 13.4354L11.9336 13.6568C11.9836 13.6739 12.0353 13.6822 12.0869 13.6822C12.1874 13.6822 12.2869 13.6502 12.3699 13.5886L12.8955 13.1982L13.5493 13.3958C13.6932 13.4394 13.8493 13.4119 13.9699 13.3221L14.4954 12.9308L15.1703 13.1278C15.3223 13.172 15.4869 13.1375 15.6087 13.0353L15.9724 12.7294L17.0288 13.6293L14.2911 18.5411L11.2358 19.0498C11.0217 19.0852 10.8187 18.94 10.7831 18.7255L10.3265 15.9699ZM8.70265 5.62958C8.74975 5.56353 8.81974 5.51985 8.89958 5.50658L21.3024 3.44142C21.3191 3.43867 21.3361 3.43719 21.3529 3.43719C21.4155 3.43719 21.4765 3.45667 21.5285 3.494C21.5945 3.54113 21.6379 3.61128 21.6512 3.69144L23.0921 12.3852L19.9771 9.53881C19.9713 9.53352 19.965 9.52901 19.9589 9.52407C19.952 9.51835 19.9453 9.51242 19.9382 9.50713C19.9308 9.50184 19.9233 9.49711 19.9158 9.49231C19.9082 9.48737 19.9008 9.48208 19.893 9.47763C19.8856 9.47347 19.8781 9.47008 19.8707 9.46627C19.8622 9.4619 19.8538 9.45738 19.845 9.45357C19.8381 9.45061 19.8311 9.44835 19.8242 9.44581C19.8143 9.44207 19.8046 9.43819 19.7945 9.43515C19.7885 9.43332 19.7823 9.43212 19.7762 9.43056C19.7651 9.4276 19.754 9.42457 19.7425 9.42252C19.737 9.42153 19.7314 9.42111 19.7257 9.42033C19.7138 9.41857 19.7017 9.41673 19.6896 9.41589C19.6836 9.41546 19.6777 9.41567 19.672 9.41546C19.66 9.41511 19.6482 9.41462 19.6362 9.41518C19.6281 9.41546 19.6201 9.41666 19.612 9.41744C19.6029 9.41836 19.5939 9.41871 19.5849 9.42005C19.5842 9.42012 19.5835 9.4204 19.5828 9.42047C19.5821 9.42061 19.5814 9.42061 19.5806 9.42068C19.5717 9.42217 19.563 9.42464 19.5542 9.42661C19.5461 9.42838 19.5378 9.42979 19.5296 9.43205C19.5205 9.43459 19.5116 9.43804 19.5026 9.44115C19.4947 9.4439 19.4865 9.44616 19.4787 9.44934C19.4696 9.45308 19.4609 9.45759 19.4521 9.4619C19.4448 9.46535 19.4374 9.46839 19.4304 9.4722C19.421 9.47728 19.4122 9.48321 19.4033 9.48892C19.3972 9.49273 19.3909 9.49612 19.3851 9.50021C19.3751 9.50713 19.3659 9.51489 19.3565 9.52251C19.3521 9.52611 19.3475 9.52929 19.3432 9.53296C19.3328 9.5422 19.323 9.55215 19.3134 9.56231C19.3108 9.56514 19.3077 9.56761 19.3051 9.57057C19.2949 9.58193 19.2852 9.59407 19.276 9.60656C19.2745 9.60861 19.2727 9.61044 19.2712 9.61249C19.2606 9.62724 19.2509 9.64255 19.2419 9.65857L17.5013 12.7816L13.6656 9.51461C13.5659 9.42993 13.436 9.38949 13.3062 9.40431C13.3058 9.40438 13.3053 9.40424 13.3049 9.40431C13.279 9.40721 13.254 9.41377 13.2292 9.42075C13.2229 9.42252 13.2162 9.42287 13.2101 9.42492C13.1893 9.43176 13.1701 9.44186 13.1506 9.45145C13.1413 9.4559 13.1311 9.45893 13.1221 9.46408C13.1038 9.47453 13.0875 9.48808 13.0708 9.50085C13.062 9.50762 13.0522 9.51285 13.0438 9.52011C13.0239 9.53776 13.0064 9.55815 12.9895 9.57911C12.9859 9.58355 12.9814 9.58694 12.9779 9.59153L12.9779 9.59167C12.9778 9.59181 12.9777 9.59181 12.9776 9.59195L12.9587 9.61722L9.94086 13.6435L8.65013 5.8561C8.6369 5.77608 8.65555 5.69556 8.70265 5.62958Z" fill="#2E2E2E"/>
<path d="M19.4714 7.97511C19.5585 7.97511 19.647 7.96791 19.7358 7.95309C20.1596 7.88245 20.5308 7.65071 20.7808 7.30034C21.0306 6.94997 21.1293 6.52318 21.0589 6.09829V6.09836C20.9136 5.22135 20.0842 4.62576 19.2086 4.77212C18.7847 4.84268 18.4137 5.07443 18.1638 5.4248C17.9138 5.77509 17.8151 6.20203 17.8854 6.62677C18.016 7.41487 18.6992 7.97511 19.4714 7.97511ZM18.9369 5.97896C19.039 5.83564 19.1909 5.7408 19.3644 5.71194C19.4008 5.7058 19.4372 5.70283 19.4735 5.70283C19.6097 5.70283 19.742 5.74517 19.8549 5.82611C19.9979 5.92851 20.0925 6.08072 20.1212 6.25446V6.2546C20.1501 6.42841 20.1097 6.60306 20.0075 6.74631C19.9052 6.88964 19.7534 6.98448 19.58 7.01327C19.2225 7.07318 18.8824 6.82951 18.823 6.47075C18.7941 6.29694 18.8346 6.12222 18.9369 5.97896Z" fill="#2E2E2E"/>
<path d="M11.5146 9.4428C11.5826 9.4428 11.6518 9.43715 11.7216 9.42551L14.9575 8.88679C15.7161 8.76034 16.043 8.10752 15.9739 7.52794C15.9162 7.0447 15.5788 6.57719 15.0233 6.46851C14.9177 6.19909 14.7191 5.84385 14.3573 5.58846C13.9638 5.31064 13.4832 5.22038 12.9292 5.32123C12.2513 5.44422 11.7651 5.73849 11.4842 6.19577C11.292 6.50874 11.238 6.83299 11.2357 7.09212C11.199 7.10341 11.1611 7.11604 11.1225 7.13001C10.5317 7.34362 10.2181 7.94126 10.377 8.55075C10.5181 9.09214 10.9792 9.4428 11.5146 9.4428ZM11.4451 8.02608C11.6324 7.95848 11.7932 7.94309 11.793 7.94309C11.9359 7.9318 12.066 7.85637 12.1471 7.73802C12.2282 7.61954 12.2517 7.47071 12.211 7.33304C12.21 7.32958 12.1185 6.98034 12.2936 6.69532C12.4269 6.47832 12.6977 6.33147 13.0986 6.25865C13.9611 6.10311 14.157 6.79348 14.1958 7.00532C14.2369 7.25322 14.4621 7.42633 14.7126 7.40113L14.7376 7.39909C14.9645 7.38286 15.0185 7.54354 15.0302 7.64113C15.0419 7.73922 15.0279 7.90936 14.8019 7.94697L11.5659 8.48576C11.3796 8.51723 11.3172 8.38887 11.2967 8.31012C11.2762 8.23143 11.2682 8.09016 11.4451 8.02608Z" fill="#2E2E2E"/>
<path d="M3.77338 17.9476L1.65363 13.5315C1.53979 13.2946 1.25599 13.1949 1.01929 13.3089C0.782795 13.4229 0.683312 13.7076 0.797087 13.9447L2.91684 18.3607C2.99872 18.5311 3.16854 18.6305 3.34546 18.6305C3.41453 18.6305 3.48472 18.6154 3.55119 18.5834C3.78768 18.4692 3.88716 18.1846 3.77338 17.9476Z" fill="#2E2E2E"/>
<path d="M4.5099 19.3928C4.39704 19.1552 4.1133 19.0544 3.87646 19.1675C3.63948 19.2806 3.53887 19.5648 3.6518 19.8024L3.88942 20.3025C3.97088 20.4739 4.14119 20.5741 4.31882 20.5741C4.38732 20.5741 4.45688 20.5593 4.52278 20.5279C4.75976 20.4147 4.86037 20.1305 4.74751 19.893L4.5099 19.3928Z" fill="#2E2E2E"/>
<path d="M25.9644 7.03992C26.0021 7.27371 26.2038 7.44025 26.4329 7.44025C26.458 7.44025 26.4836 7.43821 26.5093 7.43397C26.7684 7.39198 26.9446 7.1474 26.9025 6.88771L26.7608 6.00978C26.7188 5.75009 26.4757 5.57303 26.2157 5.61573C25.9566 5.65764 25.7806 5.9023 25.8226 6.16199L25.9644 7.03992Z" fill="#2E2E2E"/>
<path d="M27.1085 8.51372C27.0665 8.25382 26.8223 8.07705 26.5634 8.1196C26.3043 8.16166 26.1283 8.40625 26.1702 8.66587L27.0539 14.1366C27.0917 14.3705 27.2934 14.5369 27.5225 14.5369C27.5476 14.5369 27.5733 14.5349 27.599 14.5307C27.8581 14.4886 28.0341 14.244 27.9921 13.9844L27.1085 8.51372Z" fill="#2E2E2E"/>
</svg>
