<svg width="31" height="26" viewBox="0 0 31 26" fill="none" xmlns="http://www.w3.org/2000/svg">
<path d="M20.7758 13.7287C20.8488 13.7994 20.9179 13.8664 20.9676 13.9279C21.1088 14.1024 21.0794 14.3592 21.0045 14.5413C20.932 14.718 20.7616 14.8251 20.4721 14.9612C20.2145 15.0822 20.1075 15.3816 20.2331 15.63C20.3231 15.8076 20.5077 15.911 20.7 15.911C20.7763 15.911 20.8538 15.8947 20.927 15.8603C21.2096 15.7275 21.7355 15.4804 21.9699 14.909C22.2034 14.3402 22.1347 13.7435 21.7862 13.3127C21.698 13.2037 21.6033 13.112 21.5118 13.0233C21.3868 12.9021 21.2688 12.7877 21.2381 12.6899C21.1273 12.3342 21.1716 11.8446 21.6611 11.6353C21.9231 11.5233 22.0414 11.2278 21.9251 10.9754C21.8089 10.7228 21.5023 10.6087 21.2402 10.7209C20.3571 11.0984 19.9475 12.0265 20.2442 12.9778C20.3495 13.3156 20.5859 13.5447 20.7758 13.7287Z" fill="#2E2E2E"/>
<path d="M23.3499 13.7286C23.4229 13.7994 23.4921 13.8663 23.5418 13.9279C23.6831 14.1025 23.6536 14.3592 23.5789 14.5413C23.5065 14.7179 23.3359 14.8251 23.0463 14.9612C22.7887 15.0822 22.6818 15.3816 22.8073 15.63C22.8973 15.8076 23.0819 15.911 23.2742 15.911C23.3506 15.911 23.428 15.8947 23.5013 15.8603C23.7838 15.7275 24.3099 15.4804 24.5442 14.909C24.7775 14.3402 24.7089 13.7435 24.3605 13.3128C24.2722 13.2037 24.1775 13.112 24.086 13.0232C23.9609 12.9021 23.843 12.7877 23.8123 12.6899C23.7014 12.3342 23.7457 11.8446 24.2354 11.6353C24.4973 11.5233 24.6156 11.2278 24.4993 10.9754C24.3831 10.7228 24.0767 10.6087 23.8145 10.7209C22.9314 11.0984 22.5217 12.0265 22.8184 12.9779C22.9238 13.3156 23.1601 13.5445 23.3499 13.7286Z" fill="#2E2E2E"/>
<path d="M25.9243 13.7287C25.9974 13.7994 26.0664 13.8664 26.1161 13.9279C26.2574 14.1024 26.2279 14.3592 26.1531 14.5413C26.0807 14.7179 25.9101 14.8251 25.6205 14.9612C25.363 15.0822 25.256 15.3816 25.3816 15.63C25.4715 15.8076 25.6561 15.911 25.8485 15.911C25.9247 15.911 26.0022 15.8947 26.0755 15.8603C26.358 15.7275 26.8842 15.4804 27.1184 14.909C27.3518 14.3402 27.2832 13.7435 26.9347 13.3127C26.8465 13.2037 26.7518 13.112 26.6603 13.0233C26.5353 12.9021 26.4173 12.7877 26.3866 12.6898C26.2758 12.3342 26.32 11.8446 26.8096 11.6353C27.0716 11.5233 27.1898 11.2278 27.0736 10.9754C26.9575 10.7228 26.651 10.6087 26.3888 10.7209C25.5055 11.0984 25.0959 12.0265 25.3926 12.9778C25.4981 13.3156 25.7345 13.5447 25.9243 13.7287Z" fill="#2E2E2E"/>
<path d="M13.741 10.0786H12.9919V9.03837V7.01385V6.23734H13.4389C14.2171 6.23734 14.8501 5.62726 14.8501 4.87728V3.6595C14.8501 2.90952 14.2171 2.29944 13.4389 2.29944H12.8946C12.8946 2.29937 12.8946 2.29929 12.8946 2.29929C12.8883 2.27565 12.8812 2.25239 12.8744 2.22897C12.8682 2.20785 12.8624 2.18651 12.8557 2.16554C12.8482 2.14205 12.8403 2.11886 12.8322 2.09559C12.8252 2.07506 12.8181 2.05454 12.8107 2.03423C12.8021 2.01104 12.7933 1.98822 12.7842 1.96532C12.7763 1.94524 12.7681 1.92545 12.7598 1.90559C12.7503 1.88292 12.7407 1.86039 12.7306 1.83801C12.7216 1.81823 12.7123 1.79881 12.703 1.77925C12.6925 1.75739 12.6822 1.73538 12.6714 1.71382C12.6608 1.69337 12.6497 1.67314 12.6389 1.65291C12.6193 1.61652 12.5991 1.58058 12.5781 1.54516C12.5659 1.52449 12.5539 1.50367 12.5412 1.48336C12.5289 1.4635 12.516 1.44424 12.5032 1.42475C12.4907 1.40585 12.4784 1.38688 12.4655 1.36821C12.4523 1.34887 12.4385 1.32982 12.4248 1.31085C12.4116 1.29263 12.3982 1.2744 12.3846 1.25639C12.3706 1.23794 12.3565 1.21956 12.3419 1.20133C12.3274 1.1831 12.3127 1.1651 12.2977 1.14709C12.2834 1.1299 12.2691 1.11256 12.2544 1.09566C12.2377 1.07632 12.2204 1.05743 12.2031 1.03853C12.1895 1.02356 12.1761 1.00837 12.1622 0.9937C12.1322 0.962059 12.1015 0.93101 12.0702 0.900629C12.0564 0.887216 12.0421 0.874397 12.028 0.861355C12.0082 0.842904 11.9885 0.824453 11.9683 0.806446C11.9526 0.792515 11.9365 0.778954 11.9205 0.76532C11.9011 0.748721 11.8814 0.732344 11.8616 0.71619C11.8452 0.702852 11.8285 0.68981 11.8119 0.676768C11.7913 0.660837 11.7706 0.645127 11.7497 0.629714C11.7332 0.617487 11.7167 0.605261 11.6999 0.593404C11.6772 0.577176 11.6541 0.561541 11.6309 0.545979C11.6154 0.535531 11.6001 0.524934 11.5845 0.514782C11.5517 0.493663 11.5184 0.473137 11.4848 0.45313C11.4738 0.446609 11.4628 0.440089 11.4517 0.433716C11.4166 0.413338 11.381 0.393479 11.3449 0.374509C11.3297 0.366432 11.3141 0.358873 11.2988 0.351092C11.2718 0.337384 11.245 0.323897 11.2177 0.311004C11.2004 0.302852 11.183 0.294924 11.1655 0.287143C11.1393 0.275287 11.113 0.263801 11.0865 0.252612C11.0687 0.245128 11.0508 0.237791 11.0328 0.230529C11.0052 0.219562 10.9773 0.20904 10.9493 0.198814C10.9323 0.192515 10.9154 0.186143 10.8982 0.180141C10.8653 0.168729 10.8322 0.158059 10.7988 0.147684C10.7863 0.143757 10.7739 0.139533 10.7614 0.135754C10.7155 0.122119 10.6694 0.109448 10.6227 0.0977398C10.6106 0.0947016 10.5982 0.0921823 10.586 0.0892923C10.5508 0.0809189 10.5155 0.0728418 10.4799 0.065654C10.4626 0.0621712 10.4453 0.0590587 10.4278 0.0558723C10.3968 0.0500924 10.3656 0.0446093 10.3343 0.0397186C10.3155 0.0367545 10.2966 0.0340869 10.2777 0.0314933C10.2468 0.0271954 10.2157 0.0234904 10.1844 0.0200818C10.1659 0.0180069 10.1473 0.0159319 10.1285 0.0142276C10.0949 0.0111894 10.0609 0.00889242 10.0269 0.00674348C10.0107 0.00578016 9.99453 0.00452037 9.97823 0.00377936C9.92809 0.00148221 9.87765 0 9.8269 0H5.3136C3.56839 0 2.14844 1.36828 2.14844 3.05016V7.01392V9.03845V12.3256V19.7932V23.0341V24.5758C2.14844 25.3605 2.81101 25.9991 3.62545 25.9991H11.5149C12.3293 25.9991 12.9919 25.3605 12.9919 24.5758V23.0341V18.6801H13.741C14.8478 18.6801 15.7482 17.8124 15.7482 16.7457V12.013C15.7482 10.9464 14.8478 10.0786 13.741 10.0786ZM12.9919 3.29988H13.4389C13.6446 3.29988 13.8121 3.46128 13.8121 3.65957V4.87735C13.8121 5.07572 13.6446 5.23704 13.4389 5.23704H12.9919V3.29988ZM11.9539 24.5758C11.9539 24.8089 11.757 24.9987 11.5149 24.9987H3.62537C3.38331 24.9987 3.1864 24.8089 3.1864 24.5758V23.5343H11.9539V24.5758ZM11.9539 22.5339H3.1864V20.2933H5.37704C6.2526 20.2933 6.96477 19.6069 6.96477 18.7632V13.3554C6.96477 12.5117 6.25252 11.8254 5.37704 11.8254H3.1864V9.53863H11.9539V22.5339ZM11.9539 5.73715V6.51366H3.1864V3.05009C3.1864 1.91975 4.14062 1.0003 5.31352 1.0003H9.82683C10.9997 1.0003 11.9539 1.91975 11.9539 3.05009V5.73715ZM14.7102 16.7458C14.7102 17.2607 14.2755 17.6798 13.7411 17.6798H12.992V11.0791H13.7411C14.2755 11.0791 14.7102 11.498 14.7102 12.0131V16.7458Z" fill="#2E2E2E"/>
<path d="M29.6543 19.0941H29.0983V18.8755V17.2014C29.0983 16.925 28.866 16.7012 28.5792 16.7012H18.8237C18.5371 16.7012 18.3047 16.925 18.3047 17.2014V18.8755V23.6442C18.3047 24.9434 19.4015 26.0004 20.7496 26.0004H26.6534C26.7286 26.0004 26.8028 25.9966 26.8762 25.9902C26.8818 25.9896 26.8874 25.9893 26.8929 25.9889C26.9629 25.9822 27.032 25.9724 27.1002 25.9601C27.1085 25.9586 27.1171 25.9574 27.1255 25.9558C27.1916 25.9432 27.2566 25.9279 27.3208 25.9103C27.3304 25.9077 27.3401 25.9052 27.3497 25.9024C27.4126 25.8843 27.4745 25.8638 27.5353 25.8411C27.5451 25.8374 27.5547 25.8337 27.5644 25.83C27.6248 25.8066 27.6841 25.781 27.742 25.753C27.7507 25.7488 27.7595 25.7444 27.7682 25.7401C27.8265 25.7112 27.8835 25.6803 27.939 25.6471C27.946 25.6429 27.9528 25.6386 27.9597 25.6343C28.0163 25.5997 28.0716 25.5633 28.1249 25.5244C28.1291 25.5213 28.1331 25.5181 28.1373 25.5149C28.1929 25.474 28.2468 25.4311 28.2984 25.3858C28.2985 25.3857 28.2986 25.3856 28.2987 25.3856C28.3513 25.3393 28.4016 25.2908 28.4499 25.2403C28.452 25.2381 28.4542 25.236 28.4563 25.2338C28.5025 25.1852 28.5463 25.1344 28.5882 25.0821C28.5922 25.0773 28.5962 25.0725 28.6001 25.0676C28.6404 25.0165 28.6784 24.9636 28.7143 24.9092C28.7187 24.9027 28.7232 24.8963 28.7274 24.8897C28.7624 24.8357 28.795 24.7803 28.8254 24.7237C28.8295 24.7162 28.8334 24.7088 28.8374 24.7012C28.8672 24.6442 28.8947 24.5861 28.9196 24.5266C28.9228 24.5191 28.9259 24.5115 28.9289 24.5038C28.9535 24.4436 28.9758 24.3821 28.9954 24.3195C28.9974 24.3127 28.9993 24.306 29.0013 24.2993C29.0207 24.235 29.0376 24.1696 29.0512 24.1032C29.0521 24.0988 29.0528 24.0943 29.0537 24.0899C29.0676 24.0206 29.0785 23.9504 29.0859 23.8791H29.6543C30.3961 23.8791 30.9996 23.2974 30.9996 22.5825V20.3907C30.9997 19.6757 30.3962 19.0941 29.6543 19.0941ZM28.0602 23.6442C28.0602 24.3918 27.4291 25 26.6534 25H20.7496C19.9739 25 19.3427 24.3918 19.3427 23.6442V19.3757H28.0602V23.6442ZM29.9617 22.5825C29.9617 22.7458 29.8238 22.8787 29.6543 22.8787H29.0983V20.0945H29.6543C29.8238 20.0945 29.9617 20.2274 29.9617 20.3906V22.5825Z" fill="#2E2E2E"/>
<path d="M0.519018 19.8145C0.232289 19.8145 0 20.0383 0 20.3146V20.7217C0 20.9981 0.232289 21.2219 0.519018 21.2219C0.805746 21.2219 1.03804 20.9981 1.03804 20.7217V20.3146C1.03804 20.0384 0.80567 19.8145 0.519018 19.8145Z" fill="#2E2E2E"/>
<path d="M0.519018 13.1094C0.232289 13.1094 0 13.3332 0 13.6096V18.4613C0 18.7377 0.232289 18.9615 0.519018 18.9615C0.805746 18.9615 1.03804 18.7377 1.03804 18.4613V13.6096C1.03804 13.3333 0.80567 13.1094 0.519018 13.1094Z" fill="#2E2E2E"/>
<path d="M0.519018 8.25781C0.232289 8.25781 0 8.48167 0 8.758V11.484C0 11.7603 0.232289 11.9842 0.519018 11.9842C0.805746 11.9842 1.03804 11.7603 1.03804 11.484V8.758C1.03804 8.48167 0.80567 8.25781 0.519018 8.25781Z" fill="#2E2E2E"/>
<path d="M16.9057 23.0078C16.619 23.0078 16.3867 23.2317 16.3867 23.508V23.9152C16.3867 24.1915 16.619 24.4154 16.9057 24.4154C17.1925 24.4154 17.4248 24.1915 17.4248 23.9152V23.508C17.4248 23.2317 17.1924 23.0078 16.9057 23.0078Z" fill="#2E2E2E"/>
<path d="M16.9057 18.0566C16.619 18.0566 16.3867 18.2805 16.3867 18.5568V21.658C16.3867 21.9343 16.619 22.1582 16.9057 22.1582C17.1925 22.1582 17.4248 21.9343 17.4248 21.658V18.5568C17.4248 18.2805 17.1924 18.0566 16.9057 18.0566Z" fill="#2E2E2E"/>
</svg>
