<svg width="38" height="21" viewBox="0 0 38 21" fill="none" xmlns="http://www.w3.org/2000/svg">
<path d="M37.5042 9.89425C37.2614 9.07554 36.7559 8.30582 36.042 7.66843C33.6428 5.52559 30.0768 4.5436 27.3707 4.09383C26.0072 2.07234 23.4646 0 18.7697 0C15.6381 0 13.1407 0.911332 11.3465 2.70869C10.9147 3.14131 10.5487 3.60109 10.237 4.07016C10.0772 4.09287 9.91462 4.11751 9.74993 4.14386C9.42292 3.64585 9.0482 3.23557 8.62429 3.00905C8.16878 2.76576 7.67805 2.73659 7.20516 2.92481C6.22816 3.31409 5.37438 4.35954 4.73643 5.55498C3.67344 6.02352 2.66381 6.61564 1.79666 7.36391C0.426582 8.54622 -0.164775 9.91169 0.0393051 11.4225C0.418556 14.2309 3.59771 16.9402 6.39122 18.2692C10.0635 20.0161 14.368 20.9415 18.8399 20.9455L18.8522 20.9453L18.872 20.9455L18.8765 20.9453C23.5426 20.9396 28.1458 19.8972 31.8398 18.0098C32.9068 17.4646 36.4669 15.4383 37.4785 12.253C37.7274 11.4693 37.7361 10.6757 37.5042 9.89425ZM10.5698 5.49538C10.5795 5.4763 10.5886 5.45731 10.5985 5.43823C10.6845 5.27109 10.7772 5.10388 10.8771 4.93762C10.891 4.91439 10.9058 4.89139 10.9199 4.86823C10.9559 4.8096 10.9923 4.75104 11.0301 4.69278C11.0495 4.66279 11.0697 4.63296 11.0897 4.60312C11.1239 4.55161 11.1588 4.50025 11.1945 4.44912C11.217 4.41705 11.2398 4.38521 11.2628 4.3533C11.2983 4.30424 11.3345 4.25541 11.3713 4.20664C11.3956 4.17458 11.42 4.14267 11.4448 4.11075C11.4832 4.06177 11.5225 4.01316 11.5623 3.96469C11.5872 3.93434 11.6118 3.90391 11.6373 3.8737C11.6818 3.82138 11.7276 3.76965 11.7738 3.71791C11.7964 3.69261 11.8182 3.66707 11.8413 3.64206C11.9112 3.56591 11.9829 3.49036 12.0572 3.41599C13.6561 1.81405 15.9145 1.00188 18.7697 1.00188C22.6295 1.00188 25.3838 2.46102 26.9562 5.339C27.0014 5.42183 27.0445 5.50481 27.0866 5.58778C27.0948 5.60396 27.1031 5.62014 27.1112 5.63625C27.1512 5.71633 27.1898 5.79634 27.2269 5.87612C27.2336 5.89052 27.2401 5.90499 27.2467 5.91939C27.2831 5.99858 27.3183 6.07762 27.3519 6.1563C27.3538 6.16075 27.3558 6.16513 27.3577 6.16958C27.3928 6.25189 27.4259 6.3339 27.4582 6.41547C27.4638 6.42965 27.4693 6.4439 27.4749 6.45807C27.5063 6.53867 27.5364 6.61883 27.5651 6.69824C27.5683 6.70707 27.5714 6.71591 27.5746 6.72474C27.6033 6.8049 27.6308 6.88446 27.6568 6.96328C27.658 6.96669 27.6591 6.97011 27.6603 6.97352C27.6871 7.05501 27.7125 7.13554 27.7367 7.21525C27.7395 7.22438 27.7422 7.23351 27.745 7.24264C27.7691 7.32287 27.7923 7.40221 27.8139 7.48036C27.7032 7.54337 27.5921 7.60483 27.4808 7.66524C27.4701 7.67095 27.4595 7.67704 27.4488 7.68275C27.3451 7.73886 27.241 7.79334 27.1368 7.84722C27.1182 7.8568 27.0996 7.86682 27.0809 7.87639C26.9822 7.92701 26.8831 7.97614 26.7837 8.02475C26.7595 8.03663 26.7354 8.04888 26.7111 8.0606C26.6156 8.10684 26.5199 8.15167 26.4241 8.19598C26.3957 8.20919 26.3674 8.22262 26.339 8.23561C26.2466 8.27777 26.1539 8.31866 26.0611 8.35926C26.0287 8.37329 25.9966 8.38776 25.9642 8.40164C25.8741 8.4403 25.7838 8.47779 25.6933 8.51482C25.6581 8.52929 25.623 8.54406 25.5877 8.55824C25.4993 8.59379 25.4107 8.62823 25.322 8.66229C25.2843 8.67677 25.2467 8.69153 25.2089 8.70564C25.1221 8.73829 25.035 8.76984 24.9479 8.80108C24.9078 8.81541 24.8679 8.82995 24.8279 8.84391C24.7426 8.87374 24.6569 8.90261 24.5713 8.93111C24.529 8.94514 24.4868 8.95932 24.4444 8.97297C24.3605 9.00014 24.2763 9.02648 24.192 9.05231C24.1476 9.06597 24.1033 9.07955 24.0589 9.09284C23.976 9.11755 23.8931 9.14138 23.8099 9.16483C23.7638 9.17782 23.7177 9.1908 23.6715 9.20342C23.5896 9.22569 23.5075 9.24728 23.4253 9.26836C23.3775 9.28061 23.3296 9.29278 23.2817 9.30466C23.2007 9.3247 23.1196 9.34399 23.0386 9.36284C22.9891 9.37427 22.9395 9.38563 22.8899 9.39661C22.8099 9.41443 22.7298 9.43165 22.6496 9.44827C22.5984 9.45888 22.5472 9.4692 22.496 9.47937C22.4169 9.49503 22.3377 9.51009 22.2584 9.52464C22.2055 9.53429 22.1527 9.54364 22.0998 9.55277C22.0217 9.56635 21.9435 9.57941 21.8652 9.59181C21.8107 9.60049 21.756 9.60881 21.7013 9.61697C21.6242 9.6284 21.547 9.63961 21.4697 9.65C21.4136 9.65764 21.3574 9.66462 21.3013 9.67167C21.2249 9.68124 21.1483 9.69052 21.0717 9.69906C21.0143 9.70544 20.9566 9.7113 20.899 9.71709C20.8234 9.72481 20.7479 9.73223 20.6721 9.73884C20.613 9.74403 20.5539 9.74863 20.4946 9.75323C20.4199 9.75902 20.3451 9.76466 20.2702 9.76956C20.2096 9.7735 20.1488 9.77669 20.0881 9.77995C20.0143 9.78396 19.9405 9.78789 19.8665 9.79094C19.8043 9.79354 19.7421 9.79539 19.6799 9.79725C19.6758 9.79739 19.6719 9.79747 19.668 9.79762C19.6736 9.69119 19.6782 9.58506 19.6807 9.47989C19.7039 8.45389 19.5853 7.03965 18.8875 6.12958C18.5271 5.65933 18.0309 5.40446 17.4524 5.39274C17.4386 5.39244 17.4248 5.39236 17.411 5.39236C15.8344 5.39236 13.914 7.20323 12.9543 8.2267C12.8994 8.20407 12.8433 8.18366 12.785 8.16785L11.6998 7.87275C11.5463 7.83104 11.3918 7.81754 11.2411 7.82681C11.0898 7.25013 10.8458 6.42942 10.5089 5.61784C10.5292 5.57732 10.5491 5.53635 10.5698 5.49538ZM28.0059 8.52105L28.1598 9.57771C27.6202 10.0414 25.7053 11.4366 21.7413 11.9237C21.5589 11.9462 21.3734 11.9657 21.1862 11.9838C21.1587 11.9865 21.1314 11.9893 21.1038 11.9918C20.9198 12.0088 20.7338 12.0238 20.5457 12.0366C20.5214 12.0383 20.497 12.0398 20.4726 12.0414C20.0924 12.0663 19.7039 12.0822 19.3098 12.09C19.4199 11.6747 19.5079 11.2348 19.5711 10.789C22.1192 10.7228 25.0335 10.1405 28.0059 8.52105ZM14.8377 9.86612C14.8129 9.86991 14.7882 9.87161 14.764 9.87161C14.5193 9.87161 14.3049 9.69252 14.2683 9.44352C14.228 9.1698 14.4174 8.91523 14.6915 8.87493L16.0539 8.67454C16.3281 8.63335 16.5829 8.8235 16.6233 9.09714C16.6636 9.37079 16.4742 9.62536 16.2001 9.66566L14.8377 9.86612ZM16.055 11.9214C15.9567 12.0551 15.8044 12.126 15.6501 12.126C15.547 12.126 15.4432 12.0945 15.3538 12.0289L14.1271 11.1299C13.9037 10.9662 13.8555 10.6525 14.0194 10.4296C14.1833 10.2065 14.4974 10.1583 14.7207 10.322L15.9474 11.2211C16.1707 11.3847 16.2189 11.6984 16.055 11.9214ZM12.8156 9.64725L12.4464 11.0027C12.4172 11.1093 12.3476 11.1987 12.2501 11.2544C12.1526 11.31 12.04 11.3247 11.9333 11.2959C11.9333 11.2959 11.9333 11.2959 11.9332 11.2959L10.8479 11.0009C10.7412 10.9718 10.6516 10.9023 10.5959 10.8049C10.54 10.7075 10.5254 10.5952 10.5544 10.4886L10.9236 9.13336C10.9741 8.94774 11.1432 8.8255 11.3271 8.8255C11.3632 8.8255 11.4001 8.83018 11.4367 8.84005L12.522 9.13507C12.6287 9.16409 12.7182 9.23363 12.774 9.33101C12.8299 9.42831 12.8446 9.5406 12.8156 9.64725ZM8.10338 7.31285C8.27172 7.09301 8.58668 7.05123 8.80659 7.21918L9.6594 7.87045C9.87946 8.03856 9.92153 8.35295 9.7532 8.57271C9.65442 8.70163 9.50519 8.76932 9.35432 8.76932C9.24805 8.76932 9.14095 8.73577 9.04999 8.6663L8.19717 8.01503C7.97712 7.847 7.93505 7.53261 8.10338 7.31285ZM7.77408 9.15511L8.96132 9.05491C9.23571 9.03287 9.48 9.23615 9.50341 9.51188C9.52667 9.78767 9.32192 10.0299 9.04575 10.0533L7.8585 10.1535C7.84423 10.1547 7.82989 10.1552 7.81569 10.1552C7.55781 10.1552 7.33856 9.95778 7.31642 9.69638C7.29308 9.42073 7.4979 9.17841 7.77408 9.15511ZM36.5223 11.95C35.8117 14.1872 33.4016 16.0863 31.3829 17.1179C27.8242 18.9359 23.378 19.9394 18.8633 19.9432L18.8406 19.9435C14.5171 19.9396 10.3614 19.0479 6.82294 17.3647C3.337 15.7062 1.27204 13.0527 1.03377 11.2887C0.877923 10.1344 1.35542 9.06909 2.4529 8.12206C2.78369 7.83654 3.31782 7.43279 4.08948 7.00439C3.8492 7.65923 3.67946 8.30063 3.59518 8.85289C3.41221 10.0515 3.59109 10.9087 4.11259 11.3317C4.61826 11.7419 5.62209 11.8714 6.68812 11.8714C7.27257 11.8714 7.8756 11.8325 8.42533 11.7796L5.1133 14.2982C4.89138 14.4668 4.75426 14.723 4.73702 15.001C4.71978 15.279 4.82449 15.5501 5.02382 15.7448L6.36045 17.0492C6.54008 17.2245 6.7811 17.3218 7.03059 17.3218C7.0537 17.3218 7.07689 17.3211 7.10007 17.3193C7.37394 17.2994 7.6264 17.1631 7.79303 16.945L10.9317 12.8335L11.5481 17.9329C11.582 18.2136 11.7351 18.4666 11.9682 18.6271C12.1347 18.7418 12.3309 18.8018 12.5296 18.8018C12.609 18.8018 12.6888 18.7921 12.7671 18.7727L14.5153 18.3406C14.7943 18.2715 15.029 18.085 15.159 17.8288C15.2891 17.5728 15.3011 17.2737 15.1922 17.008L13.7842 13.5756C14.7934 14.2906 16.0041 14.9606 16.9984 14.9606C17.0956 14.9606 17.1911 14.9541 17.2837 14.9407C17.9396 14.8459 18.5223 14.2168 18.969 13.1217C18.9722 13.1139 18.9752 13.1055 18.9784 13.0978C19.0384 13.0974 19.0989 13.0973 19.1583 13.0966C19.1977 13.0961 19.2362 13.0951 19.2752 13.0946C19.3494 13.0933 19.4238 13.0923 19.497 13.0905C19.5398 13.0894 19.5819 13.0879 19.6244 13.0866C19.6926 13.0847 19.7612 13.0829 19.8286 13.0805C19.8734 13.0788 19.9172 13.0766 19.9617 13.0748C20.0257 13.0722 20.0902 13.0697 20.1534 13.0667C20.1983 13.0645 20.2423 13.0618 20.2868 13.0593C20.3484 13.056 20.4105 13.0529 20.4714 13.0491C20.5159 13.0464 20.5594 13.0432 20.6034 13.0402C20.6635 13.0362 20.7237 13.0324 20.7829 13.0281C20.8265 13.0249 20.8691 13.0212 20.9123 13.0177C20.9708 13.0131 21.0296 13.0086 21.0874 13.0036C21.1302 12.9999 21.1722 12.9958 21.2146 12.9918C21.2719 12.9866 21.3293 12.9815 21.3858 12.9759C21.4272 12.9717 21.4677 12.9673 21.5086 12.9629C21.565 12.957 21.6217 12.9512 21.6773 12.9449C21.7175 12.9404 21.7568 12.9355 21.7965 12.9309C21.852 12.9243 21.9077 12.9178 21.9624 12.911C22.0013 12.9061 22.0395 12.9009 22.0781 12.8958C22.1325 12.8886 22.1874 12.8816 22.2411 12.8741C22.278 12.869 22.3142 12.8635 22.3508 12.8583C22.4054 12.8504 22.4602 12.8426 22.514 12.8344C22.5492 12.8291 22.5834 12.8234 22.6182 12.8179C22.6722 12.8094 22.7262 12.8009 22.7793 12.7921C22.814 12.7863 22.8479 12.7803 22.8821 12.7745C22.9347 12.7655 22.9874 12.7566 23.0392 12.7472C23.072 12.7414 23.1042 12.7352 23.1367 12.7292C23.1889 12.7195 23.2412 12.7099 23.2927 12.6999C23.3243 12.6938 23.3552 12.6875 23.3866 12.6812C23.4377 12.6711 23.4892 12.6609 23.5396 12.6504C23.5705 12.644 23.6008 12.6374 23.6314 12.6308C23.6814 12.6202 23.7313 12.6096 23.7804 12.5987C23.8101 12.5922 23.8391 12.5853 23.8686 12.5787C23.9179 12.5675 23.9672 12.5563 24.0157 12.5448C24.0437 12.5382 24.0712 12.5315 24.0989 12.5247C24.1476 12.513 24.1964 12.5013 24.2442 12.4892C24.2714 12.4824 24.2981 12.4754 24.3249 12.4686C24.3727 12.4564 24.4204 12.4442 24.4673 12.4318C24.4928 12.425 24.5177 12.4181 24.5429 12.4114C24.5906 12.3985 24.638 12.3856 24.6847 12.3726C24.7086 12.366 24.7322 12.3591 24.7558 12.3524C24.8027 12.339 24.8494 12.3257 24.8954 12.3121C24.9186 12.3053 24.9414 12.2983 24.9645 12.2914C25.01 12.2778 25.0554 12.2642 25.1001 12.2503C25.1226 12.2433 25.1448 12.2363 25.1671 12.2292C25.2115 12.2153 25.2557 12.2013 25.2993 12.1871C25.3208 12.1801 25.3421 12.1731 25.3634 12.1659C25.4067 12.1517 25.45 12.1373 25.4924 12.1229C25.5132 12.1158 25.5336 12.1087 25.5541 12.1016C25.5966 12.0869 25.639 12.0722 25.6805 12.0574C25.6999 12.0505 25.719 12.0435 25.7381 12.0366C25.78 12.0214 25.8217 12.0064 25.8627 11.9912C25.881 11.9843 25.899 11.9774 25.9171 11.9706C25.9583 11.9552 25.9991 11.9396 26.0394 11.9241C26.0566 11.9174 26.0735 11.9106 26.0906 11.9039C26.1308 11.8881 26.1709 11.8723 26.2103 11.8564C26.2265 11.8498 26.2425 11.8432 26.2584 11.8367C26.2979 11.8205 26.3372 11.8043 26.3758 11.7882C26.391 11.7817 26.406 11.7753 26.4212 11.7689C26.4597 11.7525 26.4978 11.7362 26.5353 11.7198C26.5501 11.7134 26.5646 11.7069 26.5791 11.7004C26.6164 11.684 26.6535 11.6676 26.6898 11.651C26.7037 11.6447 26.7173 11.6385 26.7311 11.6321C26.7674 11.6155 26.8034 11.5989 26.8387 11.5823C26.852 11.576 26.8652 11.5697 26.8784 11.5634C26.9134 11.5467 26.9481 11.5302 26.9822 11.5136C26.9949 11.5073 27.0074 11.5012 27.02 11.4949C27.0541 11.4782 27.0878 11.4615 27.1209 11.4447C27.1327 11.4388 27.1442 11.4329 27.1558 11.427C27.1891 11.41 27.2221 11.393 27.2545 11.3761C27.2653 11.3705 27.2758 11.3649 27.2865 11.3593C27.319 11.3422 27.351 11.3251 27.3825 11.3081C27.3928 11.3026 27.4028 11.2971 27.413 11.2916C27.4441 11.2746 27.4747 11.2578 27.5049 11.241C27.5149 11.2354 27.5248 11.2298 27.5347 11.2242C27.5645 11.2073 27.594 11.1907 27.6229 11.174C27.6322 11.1687 27.6413 11.1634 27.6504 11.158C27.6794 11.1413 27.7077 11.1246 27.7356 11.108C27.7443 11.1029 27.7529 11.0977 27.7616 11.0925C27.7894 11.0759 27.8168 11.0593 27.8436 11.0429C27.8516 11.038 27.8596 11.0331 27.8675 11.0282C27.8943 11.0116 27.9207 10.9952 27.9465 10.9788C27.9541 10.9741 27.9615 10.9694 27.9689 10.9647C27.9946 10.9484 28.0197 10.9322 28.0444 10.9162C28.0515 10.9116 28.0585 10.907 28.0654 10.9024C28.0901 10.8863 28.1143 10.8702 28.1381 10.8544C28.1444 10.8502 28.1507 10.846 28.1569 10.8417C28.1805 10.8258 28.2035 10.8101 28.2261 10.7946C28.2323 10.7903 28.2383 10.7861 28.2444 10.7819C28.2667 10.7665 28.2885 10.7512 28.3098 10.7361C28.3155 10.732 28.3211 10.7281 28.3267 10.7241C28.348 10.7089 28.3687 10.694 28.389 10.6792C28.3942 10.6755 28.3994 10.6717 28.4044 10.668C28.4246 10.6533 28.444 10.6387 28.4631 10.6244C28.468 10.6208 28.4729 10.6171 28.4778 10.6135C28.4966 10.5993 28.5149 10.5853 28.5328 10.5716C28.5374 10.568 28.5419 10.5645 28.5464 10.561C28.5643 10.5472 28.5816 10.5338 28.5984 10.5204C28.6025 10.5172 28.6065 10.514 28.6105 10.5108C28.6272 10.4975 28.6434 10.4845 28.6592 10.4717C28.6629 10.4687 28.6666 10.4657 28.6702 10.4628C28.6856 10.4501 28.7005 10.4379 28.7151 10.4258C28.7188 10.4228 28.7225 10.4196 28.7261 10.4166C28.7405 10.4045 28.7545 10.3928 28.7679 10.3812C28.7707 10.3787 28.7736 10.3764 28.7763 10.3739C28.7899 10.3623 28.8029 10.351 28.8155 10.34C28.8182 10.3377 28.8208 10.3353 28.8235 10.3329C28.8355 10.3223 28.847 10.3121 28.8581 10.3021C28.861 10.2996 28.8638 10.2971 28.8665 10.2946C28.8772 10.2849 28.8872 10.2757 28.897 10.2668C28.8997 10.2642 28.9024 10.2618 28.905 10.2593C28.9144 10.2506 28.9232 10.2423 28.9316 10.2344C28.9343 10.2319 28.937 10.2293 28.9396 10.2268C28.9475 10.2193 28.9549 10.2122 28.9621 10.2053C28.9647 10.2028 28.9674 10.2003 28.9699 10.1977C28.9768 10.191 28.9833 10.1847 28.9894 10.1785C28.9915 10.1765 28.9938 10.1743 28.9958 10.1723C29.0017 10.1663 29.0071 10.1609 29.0124 10.1555C29.0144 10.1536 29.0163 10.1516 29.0181 10.1498C29.0228 10.1451 29.0268 10.1408 29.0309 10.1366C29.0328 10.1346 29.0348 10.1326 29.0366 10.1308C29.0399 10.1273 29.0428 10.1243 29.0456 10.1212C29.0474 10.1192 29.0494 10.1172 29.051 10.1154C29.0531 10.1133 29.0548 10.1114 29.0565 10.1096C29.0584 10.1074 29.0604 10.1054 29.0618 10.1038C29.0619 10.1036 29.0621 10.1034 29.0623 10.1033C29.063 10.1025 29.0644 10.101 29.065 10.1004C29.0652 10.1001 29.0653 10.0999 29.0655 10.0997C29.0659 10.0992 29.0667 10.0983 29.0671 10.0979C29.0678 10.0971 29.0683 10.0962 29.0689 10.0955C29.087 10.075 29.1029 10.0529 29.1173 10.03C29.1197 10.0262 29.1222 10.0226 29.1246 10.0188C29.1382 9.99571 29.1497 9.97166 29.1595 9.94695C29.1595 9.94687 29.1595 9.94687 29.1595 9.94687C29.1595 9.9468 29.1595 9.9468 29.1595 9.9468C29.1615 9.94168 29.1633 9.93655 29.1651 9.93151C29.1741 9.90598 29.1816 9.88015 29.1865 9.8535C29.187 9.85061 29.1871 9.84779 29.1877 9.8449C29.1877 9.8449 29.1877 9.84489 29.1877 9.84482C29.1919 9.81914 29.1939 9.79324 29.1941 9.76704C29.1941 9.76414 29.1948 9.7614 29.1947 9.7585C29.1936 9.66358 29.1557 7.50715 28.0281 5.22908C30.4642 5.70816 33.3766 6.63241 35.3726 8.415C35.9474 8.92852 36.3517 9.5383 36.5415 10.1786C36.716 10.7649 36.7094 11.3608 36.5223 11.95Z" fill="#2E2E2E"/>
</svg>
