<svg width="26" height="31" viewBox="0 0 26 31" fill="none" xmlns="http://www.w3.org/2000/svg">
<path d="M25.8238 24.2028L20.4727 3.94156C20.3235 3.37691 19.9632 2.90399 19.4579 2.61008C18.9526 2.31602 18.3626 2.23639 17.7975 2.38512L17.4343 2.48079L17.1796 1.49969C17.0039 0.834321 16.6805 0.38938 16.2185 0.177411C15.7651 -0.030624 15.2331 0.0101964 14.6378 0.298462L2.51229 6.15024C1.58701 6.5983 1.10572 7.64419 1.36799 8.63709L6.71972 28.9012H6.71979L6.80206 29.213C6.95122 29.7776 7.31167 30.2505 7.81682 30.5444C8.15594 30.7417 8.53303 30.8426 8.91526 30.8426C9.10262 30.8426 9.29124 30.8183 9.47726 30.7694L24.2652 26.8745C25.4325 26.5669 26.1317 25.3684 25.8238 24.2028ZM15.075 1.20022C15.2305 1.12504 15.4301 1.04993 15.6077 1.04993C15.6762 1.04993 15.7415 1.06106 15.7997 1.08785C16.0194 1.18857 16.1439 1.50645 16.2098 1.75604L16.4642 2.73633L9.58792 4.54741L6.39911 5.38727L15.075 1.20022ZM24.0093 25.9055L9.22138 29.8004C8.91511 29.8812 8.59576 29.8378 8.32197 29.6786C8.04832 29.5193 7.85301 29.2631 7.7723 28.9572L7.69003 28.6455L2.42125 8.69602C2.34046 8.39009 2.38372 8.07109 2.54328 7.79767C2.70277 7.5244 2.95932 7.32935 3.26559 7.24875L18.0535 3.35383C18.1542 3.32726 18.2564 3.31412 18.358 3.31412C18.5649 3.31412 18.7692 3.36882 18.953 3.47569C19.2266 3.63489 19.4219 3.89117 19.5026 4.19702L24.8536 24.4583C25.0204 25.0898 24.6416 25.7389 24.0093 25.9055Z" fill="#2E2E2E"/>
<path d="M12.9117 19.3468C13.3966 19.3468 13.8846 19.2819 14.365 19.1508C14.4626 19.1242 14.5585 19.0946 14.6533 19.0631C14.6691 19.0578 14.6846 19.0518 14.7003 19.0463C14.7816 19.0184 14.8621 18.9891 14.9413 18.9578C14.9503 18.9542 14.9593 18.9502 14.9683 18.9467C15.0551 18.9118 15.1405 18.8749 15.2246 18.836C15.2264 18.8351 15.2284 18.8342 15.2302 18.8333C15.4149 18.7477 15.593 18.6524 15.7644 18.5483C15.7647 18.548 15.7652 18.5477 15.7656 18.5475C16.9152 17.849 17.7541 16.755 18.1479 15.5007C18.155 15.4786 18.162 15.4567 18.1687 15.4345C18.1826 15.3885 18.1956 15.3422 18.2082 15.2958C18.2159 15.2671 18.2234 15.2385 18.2307 15.2098C18.242 15.1651 18.2533 15.1207 18.2635 15.0758C18.2714 15.0409 18.2783 15.0058 18.2856 14.9707C18.2998 14.9023 18.3126 14.8337 18.3242 14.7647C18.3309 14.7248 18.3377 14.6849 18.3435 14.6447C18.349 14.6064 18.3539 14.5681 18.3585 14.5297C18.3637 14.4872 18.3684 14.4446 18.3725 14.402C18.376 14.3665 18.3797 14.3311 18.3826 14.2954C18.3878 14.229 18.3918 14.1625 18.3945 14.0957C18.3958 14.0663 18.3963 14.0369 18.397 14.0074C18.3986 13.9485 18.3993 13.8895 18.3989 13.8303C18.3987 13.7998 18.3979 13.7693 18.3972 13.7388C18.3959 13.685 18.3937 13.6311 18.3908 13.5771C18.3892 13.5489 18.388 13.5207 18.386 13.4924C18.3805 13.4128 18.3736 13.3329 18.3645 13.253C18.3635 13.2447 18.3621 13.2364 18.3611 13.2283C18.3523 13.1543 18.3418 13.0804 18.3299 13.0064C18.3257 12.9807 18.321 12.9551 18.3165 12.9295C18.306 12.8697 18.2944 12.8101 18.2818 12.7504C18.2767 12.7257 18.2716 12.7009 18.2661 12.6761C18.2477 12.5941 18.2278 12.512 18.2054 12.4301C18.1831 12.3483 18.1583 12.2677 18.1325 12.1879C18.1248 12.1641 18.1166 12.1406 18.1087 12.117C18.0888 12.0584 18.068 12.0003 18.0464 11.9427C18.0377 11.9195 18.0292 11.8963 18.0201 11.8733C17.9901 11.7967 17.9589 11.7208 17.9256 11.6462C17.9233 11.6407 17.9205 11.6354 17.918 11.63C17.8868 11.5606 17.8541 11.4924 17.8203 11.4247C17.8084 11.4011 17.7962 11.3777 17.7841 11.3543C17.7575 11.3031 17.7301 11.2525 17.702 11.2023C17.6892 11.1794 17.6766 11.1565 17.6634 11.1339C17.624 11.0657 17.5835 10.9982 17.5413 10.9322C17.534 10.9209 17.5263 10.91 17.519 10.8989C17.4828 10.8429 17.4455 10.7879 17.4073 10.7335C17.3905 10.7098 17.3736 10.6863 17.3564 10.663C17.3253 10.6201 17.2935 10.5778 17.2611 10.5359C17.2437 10.5132 17.2263 10.4905 17.2085 10.4681C17.1616 10.4096 17.1141 10.3518 17.0651 10.2954C17.0513 10.2796 17.037 10.2644 17.0231 10.2487C16.9842 10.2049 16.9448 10.1616 16.9046 10.1192C16.8829 10.0965 16.8611 10.0742 16.8392 10.0518C16.8045 10.0164 16.7692 9.98156 16.7336 9.9472C16.7116 9.92605 16.6899 9.90475 16.6676 9.88389C16.6138 9.83357 16.5591 9.78407 16.5033 9.73605C16.4633 9.68869 16.4155 9.64913 16.3618 9.61967C16.2994 9.5695 16.236 9.52081 16.1715 9.47339C16.1693 9.47183 16.1669 9.47012 16.1648 9.46849C16.1015 9.4221 16.0373 9.3772 15.9721 9.33356C15.9689 9.3314 15.9657 9.32925 15.9625 9.3271C15.8974 9.28368 15.8314 9.24175 15.7645 9.20115C15.7618 9.19952 15.7592 9.19789 15.7565 9.19633C15.6884 9.15514 15.6194 9.11535 15.5497 9.07721C15.5494 9.07706 15.5491 9.07691 15.5488 9.07669C14.691 8.6077 13.7085 8.36597 12.6988 8.40679C12.6988 8.40679 12.6987 8.40679 12.6986 8.40679C12.6944 8.40701 12.6903 8.40723 12.6861 8.40723C12.5818 8.41176 12.4771 8.41889 12.3721 8.42957C12.3709 8.42965 12.3697 8.42972 12.3685 8.42987C12.2762 8.43922 12.1839 8.45095 12.0914 8.4652C12.0828 8.46653 12.0743 8.46742 12.0656 8.46883C11.9811 8.48227 11.8967 8.498 11.8122 8.51544C11.797 8.51856 11.7818 8.52094 11.7667 8.5242C11.6694 8.54513 11.5725 8.56844 11.4754 8.59486C11.3958 8.6166 11.3174 8.64065 11.2397 8.66566C11.2153 8.67353 11.1911 8.68162 11.1669 8.68971C11.1098 8.70901 11.0534 8.72912 10.9974 8.75012C10.9596 8.76423 10.922 8.77885 10.8846 8.79376C10.8365 8.81314 10.7885 8.83266 10.7411 8.85329C10.6982 8.87184 10.6557 8.89121 10.6134 8.91073C10.5932 8.92016 10.5732 8.92981 10.553 8.93946C10.3973 9.0139 10.2465 9.09502 10.1003 9.1826C10.0975 9.18408 10.0951 9.18594 10.0924 9.18742C10.0151 9.23396 9.93922 9.28227 9.86476 9.3323C9.86357 9.33311 9.86245 9.33385 9.86126 9.3346C9.34303 9.68365 8.89452 10.1154 8.52902 10.6066C8.52768 10.6083 8.52642 10.61 8.52508 10.6117C8.20283 11.0458 7.94561 11.5254 7.76279 12.0347C7.7581 12.0465 7.75335 12.0581 7.74971 12.0703C7.74971 12.0704 7.74963 12.0704 7.74963 12.0705C7.73157 12.122 7.7147 12.1741 7.6982 12.2262C7.69174 12.2463 7.68527 12.2666 7.6791 12.287C7.66372 12.3374 7.64893 12.3879 7.63496 12.4388C7.62946 12.4588 7.6244 12.4789 7.61913 12.4991C7.57691 12.6606 7.54191 12.8243 7.51456 12.9899C7.50958 13.0201 7.50453 13.0503 7.50007 13.0806C7.49345 13.1252 7.48736 13.1698 7.48186 13.2148C7.47747 13.2499 7.47391 13.2851 7.47026 13.3204C7.46595 13.3622 7.46135 13.404 7.458 13.446C7.45235 13.5168 7.44804 13.5879 7.44515 13.6592C7.44381 13.6936 7.44358 13.7281 7.44292 13.7626C7.44188 13.8095 7.44128 13.8564 7.44143 13.9034C7.44165 13.9385 7.44225 13.9736 7.44306 14.0088C7.44433 14.0589 7.44641 14.1091 7.44901 14.1593C7.45057 14.1899 7.45191 14.2203 7.45399 14.251C7.45941 14.3295 7.46633 14.4081 7.47517 14.4869C7.47718 14.5044 7.48 14.522 7.48223 14.5394C7.49018 14.6046 7.49932 14.6698 7.5098 14.7351C7.51419 14.7625 7.51909 14.79 7.52392 14.8174C7.53418 14.8759 7.54548 14.9343 7.55781 14.9928C7.56309 15.0183 7.56829 15.0437 7.57394 15.069C7.59245 15.1512 7.61229 15.2334 7.63466 15.3154C8.02052 16.7252 8.93309 17.9005 10.2042 18.6249C11.0433 19.103 11.9717 19.3468 12.9117 19.3468ZM11.508 18.1155C11.4463 18.0949 11.3851 18.0724 11.3241 18.049C11.3044 18.0413 11.2848 18.0333 11.2651 18.0255C11.2221 18.0084 11.1794 17.9904 11.1368 17.9719C11.1162 17.9629 11.0956 17.9541 11.0751 17.9447C11.0234 17.9213 10.972 17.8968 10.921 17.8712C10.9124 17.8669 10.9037 17.8631 10.8951 17.8587L11.2465 17.7628C11.3309 17.8821 11.4178 17.9999 11.5082 18.1156C11.508 18.1155 11.508 18.1155 11.508 18.1155ZM10.9407 14.9326L12.5687 14.4883L13.0463 16.2329L11.6845 16.6046C11.3751 16.08 11.1266 15.5224 10.9407 14.9326ZM13.6085 18.2888C13.5206 18.3027 13.4327 18.3135 13.3446 18.3221C13.3361 18.3229 13.3277 18.3237 13.3193 18.3245C13.2307 18.3326 13.1422 18.3384 13.0538 18.3413C12.7731 18.0676 12.5162 17.7801 12.2817 17.4802L13.3108 17.1993L13.609 18.2888C13.6089 18.2888 13.6087 18.2888 13.6085 18.2888ZM14.8632 17.8994C14.8632 17.8994 14.8632 17.8994 14.8631 17.8994C14.7694 17.9443 14.674 17.9861 14.5768 18.0246L14.2786 16.9352L15.116 16.7066C15.0601 17.0912 14.9778 17.4886 14.8632 17.8994ZM15.2051 15.6436L14.0142 15.9686L13.5366 14.2241L15.0383 13.8141C15.1557 14.3764 15.2191 14.9873 15.2051 15.6436ZM16.0801 17.0392C16.1147 16.8294 16.1412 16.6236 16.1617 16.4212L16.6913 16.2766C16.5136 16.5547 16.3093 16.8104 16.0801 17.0392ZM17.3422 13.1852C17.3546 13.2635 17.3647 13.3419 17.3729 13.4203C17.3734 13.4252 17.3737 13.4301 17.3743 13.435C17.3818 13.5095 17.3874 13.5838 17.3911 13.6582C17.3914 13.6642 17.3917 13.6702 17.3919 13.6762C17.3954 13.7508 17.397 13.8253 17.3966 13.8998C17.3966 13.9042 17.3966 13.9087 17.3966 13.9132C17.396 13.9914 17.3934 14.0694 17.3888 14.1472C17.3888 14.1472 17.3888 14.1473 17.3888 14.1474C17.3693 14.4667 17.3153 14.7829 17.2272 15.0917L16.2107 15.3691C16.2044 14.7146 16.1298 14.1065 16.0102 13.5489L17.3422 13.1852ZM15.9824 10.6156C16.0992 10.7247 16.2102 10.8402 16.3152 10.9619C16.3161 10.963 16.3169 10.9639 16.3178 10.965C16.4749 11.1475 16.6181 11.3438 16.7453 11.5527C16.7454 11.5529 16.7457 11.5532 16.7458 11.5535C16.8733 11.763 16.9845 11.9851 17.0776 12.2187C17.0776 12.2187 17.0776 12.2187 17.0776 12.2187L15.7465 12.5821C15.562 12.0281 15.3405 11.5395 15.1156 11.1225C15.0723 11.0424 15.0285 10.9647 14.9843 10.8882L15.9824 10.6156ZM14.0574 9.55161C14.1296 9.57069 14.2012 9.59162 14.2722 9.61425C14.2743 9.61499 14.2766 9.61566 14.2788 9.61633C14.4943 9.68535 14.704 9.77034 14.906 9.87046C14.9061 9.87053 14.9063 9.87053 14.9063 9.8706L14.4104 10.006C14.29 9.84114 14.1715 9.68973 14.0574 9.55161ZM14.7722 12.848L13.272 13.2575L12.7875 11.4877L13.9746 11.1636C14.2679 11.6401 14.5511 12.2032 14.7722 12.848ZM12.2325 9.45832C12.339 9.44169 12.4453 9.42871 12.5515 9.4198C12.553 9.41965 12.5544 9.41943 12.556 9.41935C12.7231 9.5718 13.0229 9.86593 13.3627 10.2919L12.5232 10.5211L12.2322 9.45839C12.2323 9.45839 12.2324 9.45832 12.2325 9.45832ZM10.7619 9.95818C10.7619 9.95811 10.7621 9.95803 10.7622 9.95803C10.8392 9.91573 10.9178 9.87573 10.9977 9.83772C11.0042 9.83468 11.0106 9.83157 11.0171 9.82852C11.0977 9.79067 11.1798 9.75475 11.2634 9.7215C11.2636 9.7215 11.2637 9.72135 11.264 9.72128L11.5552 10.7854L10.5815 11.0511C10.6346 10.5522 10.7122 10.1702 10.7619 9.95818ZM11.8198 11.7518L12.3042 13.5216L10.6954 13.9608C10.623 13.5835 10.5722 13.1954 10.5455 12.7955C10.5296 12.5564 10.5234 12.3259 10.5241 12.1056L11.8198 11.7518ZM9.58836 10.8924C9.57298 11.0313 9.5593 11.1783 9.54845 11.3332L9.17203 11.436C9.29651 11.2447 9.43578 11.0632 9.58836 10.8924ZM8.49862 14.5603C8.48613 14.4803 8.47603 14.4004 8.46793 14.3206C8.46703 14.312 8.46644 14.3035 8.46562 14.2949C8.45878 14.2234 8.45373 14.152 8.45039 14.0807C8.44979 14.0683 8.44935 14.0558 8.4489 14.0433C8.4463 13.9756 8.44526 13.9083 8.4457 13.8409C8.44578 13.8268 8.44593 13.8127 8.44615 13.7988C8.44734 13.7323 8.45001 13.666 8.4541 13.5999C8.45492 13.5864 8.45559 13.5728 8.45648 13.5591C8.46131 13.4906 8.46793 13.4224 8.47603 13.3544C8.47722 13.3443 8.47803 13.3341 8.47937 13.324C8.5091 13.0859 8.55778 12.8519 8.62459 12.6239L9.52318 12.3786C9.52645 12.5232 9.53233 12.671 9.54184 12.8224C9.57201 13.3017 9.63422 13.7697 9.7266 14.225L8.49869 14.5603C8.49869 14.5604 8.49869 14.5603 8.49862 14.5603ZM9.08693 16.1811C9.0847 16.1775 9.08247 16.1738 9.08039 16.1701C9.04204 16.1062 9.0054 16.0411 8.97032 15.975C8.96757 15.9698 8.96475 15.9644 8.96192 15.9591C8.92722 15.8932 8.89415 15.8261 8.86263 15.7583C8.86063 15.7538 8.85855 15.7495 8.85654 15.7451C8.82362 15.6734 8.79233 15.6008 8.76305 15.527L9.97772 15.1954C10.1618 15.7823 10.4024 16.3427 10.6939 16.8748L9.83324 17.1098C9.54325 16.8348 9.29265 16.5228 9.08693 16.1811Z" fill="#2E2E2E"/>
<path d="M18.5013 20.7605L11.4718 22.612C10.483 22.8725 9.89063 23.8878 10.1513 24.8753C10.2777 25.3536 10.5831 25.7543 11.011 26.0033C11.2983 26.1705 11.6177 26.2559 11.9415 26.2559C12.1002 26.2559 12.2601 26.2353 12.4176 26.1939L19.447 24.3425C19.9261 24.2163 20.3273 23.9113 20.5766 23.4839C20.826 23.0565 20.8939 22.5576 20.7675 22.0792C20.5068 21.0917 19.4901 20.5005 18.5013 20.7605Z" fill="#2E2E2E"/>
<path d="M2.6862 18.0053L0.987714 11.4114C0.918597 11.1434 0.644508 10.9821 0.376736 11.0511C0.108518 11.1201 -0.0530519 11.3931 0.0159163 11.6612L1.71448 18.2552C1.77275 18.4811 1.97653 18.6313 2.19993 18.6313C2.2414 18.6313 2.28347 18.6262 2.32539 18.6155C2.59368 18.5465 2.75517 18.2734 2.6862 18.0053Z" fill="#2E2E2E"/>
<path d="M3.12831 21.7215C3.39661 21.6526 3.55818 21.3795 3.48921 21.1115L3.21423 20.0442C3.14504 19.7762 2.87147 19.615 2.60332 19.6839C2.33511 19.7528 2.17346 20.0259 2.2425 20.294L2.51741 21.3612C2.57568 21.5873 2.77946 21.7374 3.00286 21.7374C3.04433 21.7374 3.08632 21.7323 3.12831 21.7215Z" fill="#2E2E2E"/>
<path d="M3.98764 23.052C3.91853 22.784 3.64459 22.6229 3.37674 22.6916C3.10845 22.7607 2.94695 23.0337 3.01592 23.3018L4.04078 27.2802C4.09905 27.5062 4.30283 27.6564 4.52624 27.6564C4.56771 27.6564 4.6097 27.6513 4.65169 27.6405C4.9199 27.5715 5.08147 27.2985 5.01251 27.0305L3.98764 23.052Z" fill="#2E2E2E"/>
<path d="M24.5753 15.6132L24.8565 16.6789C24.916 16.9036 25.119 17.0523 25.3413 17.0523C25.3835 17.0523 25.4266 17.0469 25.4695 17.0356C25.7374 16.9651 25.8974 16.691 25.8268 16.4235L25.5455 15.3578C25.4749 15.0903 25.2006 14.9306 24.9326 15.001C24.6646 15.0716 24.5046 15.3456 24.5753 15.6132Z" fill="#2E2E2E"/>
<path d="M24.0615 13.6791C24.1209 13.9038 24.3239 14.0525 24.5463 14.0525C24.5886 14.0525 24.6315 14.0471 24.6745 14.0358C24.9423 13.9653 25.1023 13.6912 25.0317 13.4237L23.9831 9.45143C23.9123 9.18394 23.6378 9.02452 23.3701 9.09466C23.1021 9.16517 22.9422 9.43933 23.0128 9.70674L24.0615 13.6791Z" fill="#2E2E2E"/>
</svg>
